<svg xmlns="http://www.w3.org/2000/svg"  viewBox="0 0 100 100" width="500px" height="500px"><path fill="#c7ede6" d="M87.215,56.71C88.35,54.555,89,52.105,89,49.5c0-6.621-4.159-12.257-10.001-14.478 C78.999,35.015,79,35.008,79,35c0-11.598-9.402-21-21-21c-9.784,0-17.981,6.701-20.313,15.757C36.211,29.272,34.638,29,33,29 c-7.692,0-14.023,5.793-14.89,13.252C12.906,43.353,9,47.969,9,53.5C9,59.851,14.149,65,20.5,65c0.177,0,0.352-0.012,0.526-0.022 C21.022,65.153,21,65.324,21,65.5C21,76.822,30.178,86,41.5,86c6.437,0,12.175-2.972,15.934-7.614C59.612,80.611,62.64,82,66,82 c4.65,0,8.674-2.65,10.666-6.518C77.718,75.817,78.837,76,80,76c6.075,0,11-4.925,11-11C91,61.689,89.53,58.727,87.215,56.71z"/><path fill="#fdfcef" d="M76.5,60.5V61h3v-0.5c0,0,3.871,0,5.5,0c2.485,0,4.5-2.015,4.5-4.5c0-2.333-1.782-4.229-4.055-4.455 C85.467,51.364,85.5,51.187,85.5,51c0-2.485-2.015-4.5-4.5-4.5c-1.438,0-2.703,0.686-3.527,1.736 C77.333,45.6,75.171,43.5,72.5,43.5c-2.761,0-5,2.239-5,5c0,0.446,0.077,0.87,0.187,1.282C67.045,49.005,66.086,48.5,65,48.5 c-1.781,0-3.234,1.335-3.455,3.055C61.364,51.533,61.187,51.5,61,51.5c-2.485,0-4.5,2.015-4.5,4.5s2.015,4.5,4.5,4.5s9.5,0,9.5,0 H76.5z"/><path fill="#472b29" d="M72.5,43c-3.033,0-5.5,2.467-5.5,5.5c0,0.016,0,0.031,0,0.047C66.398,48.192,65.71,48,65,48 c-1.831,0-3.411,1.261-3.858,3.005C61.095,51.002,61.048,51,61,51c-2.757,0-5,2.243-5,5s2.243,5,5,5h15.5 c0.276,0,0.5-0.224,0.5-0.5S76.776,60,76.5,60H61c-2.206,0-4-1.794-4-4s1.794-4,4-4c0.117,0,0.23,0.017,0.343,0.032l0.141,0.019 c0.021,0.003,0.041,0.004,0.062,0.004c0.246,0,0.462-0.185,0.495-0.437C62.232,50.125,63.504,49,65,49 c0.885,0,1.723,0.401,2.301,1.1c0.098,0.118,0.241,0.182,0.386,0.182c0.078,0,0.156-0.018,0.228-0.056 c0.209-0.107,0.314-0.346,0.254-0.573C68.054,49.218,68,48.852,68,48.5c0-2.481,2.019-4.5,4.5-4.5c2.381,0,4.347,1.872,4.474,4.263 c0.011,0.208,0.15,0.387,0.349,0.45c0.05,0.016,0.101,0.024,0.152,0.024c0.15,0,0.296-0.069,0.392-0.192 C78.638,47.563,79.779,47,81,47c2.206,0,4,1.794,4,4c0,0.117-0.017,0.23-0.032,0.343l-0.019,0.141 c-0.016,0.134,0.022,0.268,0.106,0.373c0.084,0.105,0.207,0.172,0.34,0.185C87.451,52.247,89,53.949,89,56c0,2.206-1.794,4-4,4 h-5.5c-0.276,0-0.5,0.224-0.5,0.5s0.224,0.5,0.5,0.5H85c2.757,0,5-2.243,5-5c0-2.397-1.689-4.413-4.003-4.877 C85.999,51.082,86,51.041,86,51c0-2.757-2.243-5-5-5c-1.176,0-2.293,0.416-3.183,1.164C77.219,44.76,75.055,43,72.5,43L72.5,43z"/><path fill="#472b29" d="M71 50c-1.403 0-2.609.999-2.913 2.341C67.72 52.119 67.301 52 66.875 52c-1.202 0-2.198.897-2.353 2.068C64.319 54.022 64.126 54 63.937 54c-1.529 0-2.811 1.2-2.918 2.732C61.01 56.87 61.114 56.99 61.251 57c.006 0 .012 0 .018 0 .13 0 .24-.101.249-.232.089-1.271 1.151-2.268 2.419-2.268.229 0 .47.042.738.127.022.007.045.01.067.01.055 0 .11-.02.156-.054C64.962 54.537 65 54.455 65 54.375c0-1.034.841-1.875 1.875-1.875.447 0 .885.168 1.231.473.047.041.106.063.165.063.032 0 .063-.006.093-.019.088-.035.148-.117.155-.212C68.623 51.512 69.712 50.5 71 50.5c.208 0 .425.034.682.107.023.007.047.01.07.01.109 0 .207-.073.239-.182.038-.133-.039-.271-.172-.309C71.517 50.04 71.256 50 71 50L71 50zM84.883 51.5c-1.326 0-2.508.897-2.874 2.182-.038.133.039.271.172.309C82.205 53.997 82.228 54 82.25 54c.109 0 .209-.072.24-.182C82.795 52.748 83.779 52 84.883 52c.117 0 .23.014.342.029.012.002.023.003.035.003.121 0 .229-.092.246-.217.019-.137-.077-.263-.214-.281C85.158 51.516 85.022 51.5 84.883 51.5L84.883 51.5z"/><path fill="#fff" d="M15.5 51h-10C5.224 51 5 50.776 5 50.5S5.224 50 5.5 50h10c.276 0 .5.224.5.5S15.777 51 15.5 51zM18.5 51h-1c-.276 0-.5-.224-.5-.5s.224-.5.5-.5h1c.276 0 .5.224.5.5S18.777 51 18.5 51zM23.491 53H14.5c-.276 0-.5-.224-.5-.5s.224-.5.5-.5h8.991c.276 0 .5.224.5.5S23.767 53 23.491 53zM12.5 53h-1c-.276 0-.5-.224-.5-.5s.224-.5.5-.5h1c.276 0 .5.224.5.5S12.777 53 12.5 53zM9.5 53h-2C7.224 53 7 52.776 7 52.5S7.224 52 7.5 52h2c.276 0 .5.224.5.5S9.777 53 9.5 53zM15.5 55h-2c-.276 0-.5-.224-.5-.5s.224-.5.5-.5h2c.276 0 .5.224.5.5S15.776 55 15.5 55zM18.5 46c-.177 0-.823 0-1 0-.276 0-.5.224-.5.5 0 .276.224.5.5.5.177 0 .823 0 1 0 .276 0 .5-.224.5-.5C19 46.224 18.776 46 18.5 46zM18.5 48c-.177 0-4.823 0-5 0-.276 0-.5.224-.5.5 0 .276.224.5.5.5.177 0 4.823 0 5 0 .276 0 .5-.224.5-.5C19 48.224 18.776 48 18.5 48zM23.5 50c-.177 0-2.823 0-3 0-.276 0-.5.224-.5.5 0 .276.224.5.5.5.177 0 2.823 0 3 0 .276 0 .5-.224.5-.5C24 50.224 23.776 50 23.5 50z"/><g><path fill="#fff" d="M72.5 24h-10c-.276 0-.5-.224-.5-.5s.224-.5.5-.5h10c.276 0 .5.224.5.5S72.776 24 72.5 24zM76.5 24h-2c-.276 0-.5-.224-.5-.5s.224-.5.5-.5h2c.276 0 .5.224.5.5S76.776 24 76.5 24zM81.5 26h-10c-.276 0-.5-.224-.5-.5s.224-.5.5-.5h10c.276 0 .5.224.5.5S81.777 26 81.5 26zM69.5 26h-1c-.276 0-.5-.224-.5-.5s.224-.5.5-.5h1c.276 0 .5.224.5.5S69.776 26 69.5 26zM66.47 26H64.5c-.276 0-.5-.224-.5-.5s.224-.5.5-.5h1.97c.276 0 .5.224.5.5S66.746 26 66.47 26zM75.5 22h-5c-.276 0-.5-.224-.5-.5s.224-.5.5-.5h5c.276 0 .5.224.5.5S75.777 22 75.5 22zM72.5 28h-2c-.276 0-.5-.224-.5-.5s.224-.5.5-.5h2c.276 0 .5.224.5.5S72.776 28 72.5 28z"/></g><g><path fill="#78a0cf" d="M52 27A23 23 0 1 0 52 73A23 23 0 1 0 52 27Z"/><path fill="#472b29" d="M51.999,27.4C64.461,27.4,74.6,37.538,74.6,49.999C74.6,62.461,64.461,72.6,51.999,72.6 C39.538,72.6,29.4,62.462,29.4,50S39.538,27.4,51.999,27.4 M51.999,26C38.765,26,28,36.766,28,50s10.765,24,23.999,24 C65.234,74,76,63.233,76,49.999S65.234,26,51.999,26L51.999,26z"/><path fill="#fdfcef" d="M32.725,46.375c-0.221,1.176-0.35,2.385-0.35,3.625c0,10.821,8.804,19.625,19.625,19.625 S71.625,60.821,71.625,50S62.821,30.375,52,30.375c-6.302,0-11.905,2.998-15.498,7.63l-0.303-0.235 c-0.969,1.251-1.796,2.615-2.45,4.076l0.347,0.156c-0.327,0.729-0.621,1.476-0.858,2.249l-0.361-0.11h0 c-0.216,0.705-0.384,1.43-0.522,2.166L32.725,46.375z"/><path fill="#472b29" d="M52,70c-11.028,0-20-8.972-20-20c0-1.192,0.119-2.435,0.354-3.694c0.038-0.204,0.23-0.339,0.438-0.3 c0.204,0.038,0.338,0.234,0.3,0.438C32.865,47.658,32.75,48.854,32.75,50c0,10.614,8.636,19.25,19.25,19.25S71.25,60.614,71.25,50 S62.614,30.75,52,30.75c-5.98,0-11.524,2.726-15.208,7.48c-0.126,0.163-0.362,0.194-0.526,0.066 c-0.164-0.127-0.193-0.362-0.066-0.526C40.026,32.832,45.786,30,52,30c11.028,0,20,8.972,20,20S63.028,70,52,70z"/><path fill="#472b29" d="M33.235,44.625c-0.036,0-0.073-0.005-0.109-0.017c-0.198-0.06-0.31-0.27-0.249-0.468 c0.224-0.732,0.509-1.482,0.872-2.294c0.085-0.189,0.307-0.273,0.496-0.189c0.189,0.084,0.273,0.307,0.189,0.496 c-0.351,0.783-0.625,1.504-0.84,2.206C33.544,44.521,33.396,44.625,33.235,44.625z"/></g><g><path fill="#f1bc19" d="M52 38.25c3.262 0 6.297 1.315 8.546 3.702.283.301.269.777-.032 1.06-.14.132-.322.204-.514.204-.209 0-.403-.084-.546-.236-1.962-2.083-4.609-3.23-7.454-3.23-5.496 0-9.989 4.306-10.228 9.803l-.028.642.454-.454 1.271-1.271c.142-.142.33-.22.53-.22s.389.078.53.22c.292.292.292.768 0 1.061l-3 3c-.142.142-.33.22-.53.22-.2 0-.389-.078-.53-.22l-3-3c-.292-.292-.292-.768 0-1.061.142-.142.33-.22.53-.22s.389.078.53.22l1.313 1.313.408.408.019-.576C40.478 43.242 45.631 38.25 52 38.25M63 47.25c.2 0 .389.078.53.22l3 3c.292.292.292.768 0 1.06-.142.142-.33.22-.53.22-.2 0-.389-.078-.53-.22l-1.313-1.313-.408-.408-.019.576C63.522 56.758 58.369 61.75 52 61.75c-3.262 0-6.297-1.315-8.546-3.702-.284-.301-.269-.777.032-1.06.14-.131.322-.204.514-.204.209 0 .403.084.546.236 1.962 2.083 4.609 3.23 7.454 3.23 5.496 0 9.989-4.306 10.228-9.803l.028-.642-.454.454L60.53 51.53c-.142.142-.33.22-.53.22s-.389-.078-.53-.22c-.292-.292-.292-.768 0-1.061l3-3C62.611 47.328 62.8 47.25 63 47.25"/><path fill="#472b29" d="M52 38.5c3.192 0 6.163 1.287 8.364 3.623.189.201.179.518-.021.707-.093.088-.215.136-.343.136-.139 0-.268-.056-.364-.157C57.626 40.675 54.914 39.5 52 39.5c-5.631 0-10.233 4.411-10.477 10.042l-.056 1.284.909-.909 1.271-1.271C43.741 48.552 43.867 48.5 44 48.5c.133 0 .259.052.353.147C44.448 48.741 44.5 48.867 44.5 49s-.052.259-.147.353l-3 3C41.259 52.448 41.133 52.5 41 52.5s-.259-.052-.353-.147l-3-3C37.552 49.259 37.5 49.133 37.5 49s.052-.259.147-.353C37.741 48.552 37.867 48.5 38 48.5c.133 0 .259.052.353.147l1.313 1.313.816.816.038-1.153C40.724 43.385 45.766 38.5 52 38.5M52 38c-6.484 0-11.77 5.172-11.98 11.606l-1.313-1.313C38.512 48.098 38.256 48 38 48s-.512.098-.707.293c-.391.391-.391 1.023 0 1.414l3 3C40.488 52.902 40.744 53 41 53s.512-.098.707-.293l3-3c.391-.391.391-1.023 0-1.414C44.512 48.098 44.256 48 44 48s-.512.098-.707.293l-1.271 1.271C42.253 44.253 46.633 40 52 40c2.775 0 5.357 1.119 7.272 3.151.197.209.462.314.728.314.246 0 .493-.09.686-.272.402-.379.421-1.012.042-1.414C58.431 39.342 55.332 38 52 38L52 38zM63 47.5c.133 0 .259.052.353.147l3 3c.195.195.195.512 0 .707C66.259 51.448 66.133 51.5 66 51.5s-.259-.052-.353-.147l-1.313-1.313-.816-.816-.038 1.153C63.276 56.615 58.234 61.5 52 61.5c-3.192 0-6.163-1.287-8.364-3.623-.189-.201-.179-.518.021-.707.093-.088.215-.136.343-.136.139 0 .269.056.364.157C46.374 59.325 49.086 60.5 52 60.5c5.631 0 10.233-4.411 10.477-10.042l.056-1.284-.909.909-1.271 1.271C60.259 51.448 60.133 51.5 60 51.5c-.133 0-.259-.052-.353-.147-.195-.195-.195-.512 0-.707l3-3C62.741 47.552 62.867 47.5 63 47.5M63 47c-.256 0-.512.098-.707.293l-3 3c-.391.391-.391 1.023 0 1.414C59.488 51.902 59.744 52 60 52s.512-.098.707-.293l1.271-1.271C61.747 55.747 57.367 60 52 60c-2.775 0-5.357-1.119-7.272-3.151-.197-.209-.462-.314-.728-.314-.246 0-.493.09-.686.272-.402.379-.421 1.012-.042 1.414C45.569 60.658 48.668 62 52 62c6.484 0 11.77-5.172 11.98-11.606l1.313 1.313C65.488 51.902 65.744 52 66 52s.512-.098.707-.293c.391-.391.391-1.023 0-1.414l-3-3C63.512 47.098 63.256 47 63 47L63 47z"/></g><g><path fill="#fdfcef" d="M36.5,73.5c0,0,1.567,0,3.5,0s3.5-1.567,3.5-3.5c0-1.781-1.335-3.234-3.055-3.455 C40.473,66.366,40.5,66.187,40.5,66c0-1.933-1.567-3.5-3.5-3.5c-1.032,0-1.95,0.455-2.59,1.165 c-0.384-1.808-1.987-3.165-3.91-3.165c-2.209,0-4,1.791-4,4c0,0.191,0.03,0.374,0.056,0.558C26.128,64.714,25.592,64.5,25,64.5 c-1.228,0-2.245,0.887-2.455,2.055C22.366,66.527,22.187,66.5,22,66.5c-1.933,0-3.5,1.567-3.5,3.5s1.567,3.5,3.5,3.5s7.5,0,7.5,0 V74h7V73.5z"/><path fill="#472b29" d="M38.25 69C38.112 69 38 68.888 38 68.75c0-1.223.995-2.218 2.218-2.218.034.009.737-.001 1.244.136.133.036.212.173.176.306-.036.134-.173.213-.306.176-.444-.12-1.1-.12-1.113-.118-.948 0-1.719.771-1.719 1.718C38.5 68.888 38.388 69 38.25 69zM31.5 73A.5.5 0 1 0 31.5 74 .5.5 0 1 0 31.5 73z"/><path fill="#472b29" d="M40,74h-3.5c-0.276,0-0.5-0.224-0.5-0.5s0.224-0.5,0.5-0.5H40c1.654,0,3-1.346,3-3 c0-1.496-1.125-2.768-2.618-2.959c-0.134-0.018-0.255-0.088-0.336-0.196s-0.115-0.244-0.094-0.377C39.975,66.314,40,66.16,40,66 c0-1.654-1.346-3-3-3c-0.85,0-1.638,0.355-2.219,1c-0.125,0.139-0.321,0.198-0.5,0.148c-0.182-0.049-0.321-0.195-0.36-0.379 C33.58,62.165,32.141,61,30.5,61c-1.93,0-3.5,1.57-3.5,3.5c0,0.143,0.021,0.28,0.041,0.418c0.029,0.203-0.063,0.438-0.242,0.54 c-0.179,0.102-0.396,0.118-0.556-0.01C25.878,65.155,25.449,65,25,65c-0.966,0-1.792,0.691-1.963,1.644 c-0.048,0.267-0.296,0.446-0.569,0.405C22.314,67.025,22.16,67,22,67c-1.654,0-3,1.346-3,3s1.346,3,3,3h7.5 c0.276,0,0.5,0.224,0.5,0.5S29.776,74,29.5,74H22c-2.206,0-4-1.794-4-4s1.794-4,4-4c0.059,0,0.116,0.002,0.174,0.006 C22.588,64.82,23.711,64,25,64c0.349,0,0.689,0.061,1.011,0.18C26.176,61.847,28.126,60,30.5,60c1.831,0,3.466,1.127,4.153,2.774 C35.333,62.276,36.155,62,37,62c2.206,0,4,1.794,4,4c0,0.048-0.001,0.095-0.004,0.142C42.739,66.59,44,68.169,44,70 C44,72.206,42.206,74,40,74z"/><path fill="#472b29" d="M34.5,73c-0.159,0-0.841,0-1,0c-0.276,0-0.5,0.224-0.5,0.5c0,0.276,0.224,0.5,0.5,0.5 c0.159,0,0.841,0,1,0c0.276,0,0.5-0.224,0.5-0.5C35,73.224,34.776,73,34.5,73z"/></g></svg>